<svg width="255" height="45" viewBox="0 0 255 45" fill="none" xmlns="http://www.w3.org/2000/svg">
<rect width="254.26" height="44.2598" fill="white"/>
<mask id="path-1-outside-1_36_1579" maskUnits="userSpaceOnUse" x="8.13" y="13.1299" width="237" height="19" fill="black">
<rect fill="white" x="8.13" y="13.1299" width="237" height="19"/>
<path d="M9.26662 14.037H11.4032V18.3102H13.5399V20.4469H11.4032V31.1299H9.26662V14.037ZM17.8131 20.4469H15.6765V18.3102H17.8131V14.037H19.9497V31.1299H17.8131V20.4469ZM13.5399 20.4469H15.6765V24.7201H13.5399V20.4469ZM28.5045 28.9933V16.1736H24.2313V14.037H34.9144V16.1736H30.6411V28.9933H34.9144V31.1299H24.2313V28.9933H28.5045ZM39.1959 14.037H47.7424V16.1736H41.3326V28.9933H47.7424V31.1299H39.1959V14.037ZM47.7424 16.1736H49.879V28.9933H47.7424V16.1736ZM54.1606 14.037H64.8437V16.1736H56.2972V20.4469H62.7071V22.5835H56.2972V28.9933H64.8437V31.1299H54.1606V14.037ZM69.1252 14.037H71.2619V18.3102H73.3985V20.4469H71.2619V31.1299H69.1252V14.037ZM77.6717 24.7201H75.5351V22.5835H77.6717V14.037H79.8083V31.1299H77.6717V24.7201ZM75.5351 22.5835H73.3985V20.4469H75.5351V22.5835ZM99.0546 14.037H107.601V16.1736H101.191V22.5835H107.601V24.7201H101.191V31.1299H99.0546V14.037ZM107.601 16.1736H109.738V22.5835H107.601V16.1736ZM114.019 14.037H116.156V28.9933H124.702V31.1299H114.019V14.037ZM128.984 18.3102H131.12V22.5835H137.53V18.3102H139.667V31.1299H137.53V24.7201H131.12V31.1299H128.984V18.3102ZM133.257 14.037H135.394V16.1736H133.257V14.037ZM131.12 16.1736H133.257V18.3102H131.12V16.1736ZM135.394 16.1736H137.53V18.3102H135.394V16.1736ZM143.949 14.037H146.085V20.4469H143.949V14.037ZM152.495 14.037H154.632V20.4469H152.495V14.037ZM148.222 22.5835H150.358V31.1299H148.222V22.5835ZM146.085 20.4469H148.222V22.5835H146.085V20.4469ZM150.358 20.4469H152.495V22.5835H150.358V20.4469ZM158.913 16.1736H161.05V28.9933H158.913V16.1736ZM161.05 28.9933H167.46V31.1299H161.05V28.9933ZM167.46 24.7201H165.323V22.5835H169.596V28.9933H167.46V24.7201ZM161.05 14.037H167.46V16.1736H161.05V14.037ZM167.46 16.1736H169.596V18.3102H167.46V16.1736ZM173.878 14.037H182.424V16.1736H176.014V22.5835H182.424V26.8567H180.288V24.7201H176.014V31.1299H173.878V14.037ZM182.424 16.1736H184.561V22.5835H182.424V16.1736ZM182.424 26.8567H184.561V31.1299H182.424V26.8567ZM188.843 16.1736H190.979V28.9933H188.843V16.1736ZM190.979 28.9933H197.389V31.1299H190.979V28.9933ZM197.389 16.1736H199.526V28.9933H197.389V16.1736ZM190.979 14.037H197.389V16.1736H190.979V14.037ZM203.807 14.037H205.944V28.9933H203.807V14.037ZM205.944 28.9933H212.354V31.1299H205.944V28.9933ZM212.354 14.037H214.49V28.9933H212.354V14.037ZM218.772 14.037H220.908V18.3102H223.045V20.4469H220.908V31.1299H218.772V14.037ZM227.318 24.7201H225.182V22.5835H227.318V14.037H229.455V31.1299H227.318V24.7201ZM225.182 22.5835H223.045V20.4469H225.182V22.5835ZM233.736 14.037H242.283V16.1736H235.873V28.9933H242.283V31.1299H233.736V14.037ZM242.283 16.1736H244.42V28.9933H242.283V16.1736Z"/>
</mask>
<path d="M9.26662 14.037H11.4032V18.3102H13.5399V20.4469H11.4032V31.1299H9.26662V14.037ZM17.8131 20.4469H15.6765V18.3102H17.8131V14.037H19.9497V31.1299H17.8131V20.4469ZM13.5399 20.4469H15.6765V24.7201H13.5399V20.4469ZM28.5045 28.9933V16.1736H24.2313V14.037H34.9144V16.1736H30.6411V28.9933H34.9144V31.1299H24.2313V28.9933H28.5045ZM39.1959 14.037H47.7424V16.1736H41.3326V28.9933H47.7424V31.1299H39.1959V14.037ZM47.7424 16.1736H49.879V28.9933H47.7424V16.1736ZM54.1606 14.037H64.8437V16.1736H56.2972V20.4469H62.7071V22.5835H56.2972V28.9933H64.8437V31.1299H54.1606V14.037ZM69.1252 14.037H71.2619V18.3102H73.3985V20.4469H71.2619V31.1299H69.1252V14.037ZM77.6717 24.7201H75.5351V22.5835H77.6717V14.037H79.8083V31.1299H77.6717V24.7201ZM75.5351 22.5835H73.3985V20.4469H75.5351V22.5835ZM99.0546 14.037H107.601V16.1736H101.191V22.5835H107.601V24.7201H101.191V31.1299H99.0546V14.037ZM107.601 16.1736H109.738V22.5835H107.601V16.1736ZM114.019 14.037H116.156V28.9933H124.702V31.1299H114.019V14.037ZM128.984 18.3102H131.12V22.5835H137.53V18.3102H139.667V31.1299H137.53V24.7201H131.12V31.1299H128.984V18.3102ZM133.257 14.037H135.394V16.1736H133.257V14.037ZM131.12 16.1736H133.257V18.3102H131.12V16.1736ZM135.394 16.1736H137.53V18.3102H135.394V16.1736ZM143.949 14.037H146.085V20.4469H143.949V14.037ZM152.495 14.037H154.632V20.4469H152.495V14.037ZM148.222 22.5835H150.358V31.1299H148.222V22.5835ZM146.085 20.4469H148.222V22.5835H146.085V20.4469ZM150.358 20.4469H152.495V22.5835H150.358V20.4469ZM158.913 16.1736H161.05V28.9933H158.913V16.1736ZM161.05 28.9933H167.46V31.1299H161.05V28.9933ZM167.46 24.7201H165.323V22.5835H169.596V28.9933H167.46V24.7201ZM161.05 14.037H167.46V16.1736H161.05V14.037ZM167.46 16.1736H169.596V18.3102H167.46V16.1736ZM173.878 14.037H182.424V16.1736H176.014V22.5835H182.424V26.8567H180.288V24.7201H176.014V31.1299H173.878V14.037ZM182.424 16.1736H184.561V22.5835H182.424V16.1736ZM182.424 26.8567H184.561V31.1299H182.424V26.8567ZM188.843 16.1736H190.979V28.9933H188.843V16.1736ZM190.979 28.9933H197.389V31.1299H190.979V28.9933ZM197.389 16.1736H199.526V28.9933H197.389V16.1736ZM190.979 14.037H197.389V16.1736H190.979V14.037ZM203.807 14.037H205.944V28.9933H203.807V14.037ZM205.944 28.9933H212.354V31.1299H205.944V28.9933ZM212.354 14.037H214.49V28.9933H212.354V14.037ZM218.772 14.037H220.908V18.3102H223.045V20.4469H220.908V31.1299H218.772V14.037ZM227.318 24.7201H225.182V22.5835H227.318V14.037H229.455V31.1299H227.318V24.7201ZM225.182 22.5835H223.045V20.4469H225.182V22.5835ZM233.736 14.037H242.283V16.1736H235.873V28.9933H242.283V31.1299H233.736V14.037ZM242.283 16.1736H244.42V28.9933H242.283V16.1736Z" fill="#292929"/>
<path d="M9.26662 14.037V13.5914H8.821V14.037H9.26662ZM11.4032 14.037H11.8489V13.5914H11.4032V14.037ZM11.4032 18.3102H10.9576V18.7559H11.4032V18.3102ZM13.5399 18.3102H13.9855V17.8646H13.5399V18.3102ZM13.5399 20.4469V20.8925H13.9855V20.4469H13.5399ZM11.4032 20.4469V20.0012H10.9576V20.4469H11.4032ZM11.4032 31.1299V31.5756H11.8489V31.1299H11.4032ZM9.26662 31.1299H8.821V31.5756H9.26662V31.1299ZM17.8131 20.4469H18.2587V20.0012H17.8131V20.4469ZM15.6765 20.4469H15.2308V20.8925H15.6765V20.4469ZM15.6765 18.3102V17.8646H15.2308V18.3102H15.6765ZM17.8131 18.3102V18.7559H18.2587V18.3102H17.8131ZM17.8131 14.037V13.5914H17.3675V14.037H17.8131ZM19.9497 14.037H20.3953V13.5914H19.9497V14.037ZM19.9497 31.1299V31.5756H20.3953V31.1299H19.9497ZM17.8131 31.1299H17.3675V31.5756H17.8131V31.1299ZM13.5399 20.4469V20.0012H13.0942V20.4469H13.5399ZM15.6765 20.4469H16.1221V20.0012H15.6765V20.4469ZM15.6765 24.7201V25.1657H16.1221V24.7201H15.6765ZM13.5399 24.7201H13.0942V25.1657H13.5399V24.7201ZM9.26662 14.037V14.4826H11.4032V14.037V13.5914H9.26662V14.037ZM11.4032 14.037H10.9576V18.3102H11.4032H11.8489V14.037H11.4032ZM11.4032 18.3102V18.7559H13.5399V18.3102V17.8646H11.4032V18.3102ZM13.5399 18.3102H13.0942V20.4469H13.5399H13.9855V18.3102H13.5399ZM13.5399 20.4469V20.0012H11.4032V20.4469V20.8925H13.5399V20.4469ZM11.4032 20.4469H10.9576V31.1299H11.4032H11.8489V20.4469H11.4032ZM11.4032 31.1299V30.6843H9.26662V31.1299V31.5756H11.4032V31.1299ZM9.26662 31.1299H9.71224V14.037H9.26662H8.821V31.1299H9.26662ZM17.8131 20.4469V20.0012H15.6765V20.4469V20.8925H17.8131V20.4469ZM15.6765 20.4469H16.1221V18.3102H15.6765H15.2308V20.4469H15.6765ZM15.6765 18.3102V18.7559H17.8131V18.3102V17.8646H15.6765V18.3102ZM17.8131 18.3102H18.2587V14.037H17.8131H17.3675V18.3102H17.8131ZM17.8131 14.037V14.4826H19.9497V14.037V13.5914H17.8131V14.037ZM19.9497 14.037H19.5041V31.1299H19.9497H20.3953V14.037H19.9497ZM19.9497 31.1299V30.6843H17.8131V31.1299V31.5756H19.9497V31.1299ZM17.8131 31.1299H18.2587V20.4469H17.8131H17.3675V31.1299H17.8131ZM13.5399 20.4469V20.8925H15.6765V20.4469V20.0012H13.5399V20.4469ZM15.6765 20.4469H15.2308V24.7201H15.6765H16.1221V20.4469H15.6765ZM15.6765 24.7201V24.2745H13.5399V24.7201V25.1657H15.6765V24.7201ZM13.5399 24.7201H13.9855V20.4469H13.5399H13.0942V24.7201H13.5399ZM28.5045 28.9933V29.4389H28.9501V28.9933H28.5045ZM28.5045 16.1736H28.9501V15.728H28.5045V16.1736ZM24.2313 16.1736H23.7857V16.6193H24.2313V16.1736ZM24.2313 14.037V13.5914H23.7857V14.037H24.2313ZM34.9144 14.037H35.36V13.5914H34.9144V14.037ZM34.9144 16.1736V16.6193H35.36V16.1736H34.9144ZM30.6411 16.1736V15.728H30.1955V16.1736H30.6411ZM30.6411 28.9933H30.1955V29.4389H30.6411V28.9933ZM34.9144 28.9933H35.36V28.5477H34.9144V28.9933ZM34.9144 31.1299V31.5756H35.36V31.1299H34.9144ZM24.2313 31.1299H23.7857V31.5756H24.2313V31.1299ZM24.2313 28.9933V28.5477H23.7857V28.9933H24.2313ZM28.5045 28.9933H28.9501V16.1736H28.5045H28.0589V28.9933H28.5045ZM28.5045 16.1736V15.728H24.2313V16.1736V16.6193H28.5045V16.1736ZM24.2313 16.1736H24.6769V14.037H24.2313H23.7857V16.1736H24.2313ZM24.2313 14.037V14.4826H34.9144V14.037V13.5914H24.2313V14.037ZM34.9144 14.037H34.4687V16.1736H34.9144H35.36V14.037H34.9144ZM34.9144 16.1736V15.728H30.6411V16.1736V16.6193H34.9144V16.1736ZM30.6411 16.1736H30.1955V28.9933H30.6411H31.0867V16.1736H30.6411ZM30.6411 28.9933V29.4389H34.9144V28.9933V28.5477H30.6411V28.9933ZM34.9144 28.9933H34.4687V31.1299H34.9144H35.36V28.9933H34.9144ZM34.9144 31.1299V30.6843H24.2313V31.1299V31.5756H34.9144V31.1299ZM24.2313 31.1299H24.6769V28.9933H24.2313H23.7857V31.1299H24.2313ZM24.2313 28.9933V29.4389H28.5045V28.9933V28.5477H24.2313V28.9933ZM39.1959 14.037V13.5914H38.7503V14.037H39.1959ZM47.7424 14.037H48.188V13.5914H47.7424V14.037ZM47.7424 16.1736V16.6193H48.188V16.1736H47.7424ZM41.3326 16.1736V15.728H40.8869V16.1736H41.3326ZM41.3326 28.9933H40.8869V29.4389H41.3326V28.9933ZM47.7424 28.9933H48.188V28.5477H47.7424V28.9933ZM47.7424 31.1299V31.5756H48.188V31.1299H47.7424ZM39.1959 31.1299H38.7503V31.5756H39.1959V31.1299ZM47.7424 16.1736V15.728H47.2968V16.1736H47.7424ZM49.879 16.1736H50.3246V15.728H49.879V16.1736ZM49.879 28.9933V29.4389H50.3246V28.9933H49.879ZM47.7424 28.9933H47.2968V29.4389H47.7424V28.9933ZM39.1959 14.037V14.4826H47.7424V14.037V13.5914H39.1959V14.037ZM47.7424 14.037H47.2968V16.1736H47.7424H48.188V14.037H47.7424ZM47.7424 16.1736V15.728H41.3326V16.1736V16.6193H47.7424V16.1736ZM41.3326 16.1736H40.8869V28.9933H41.3326H41.7782V16.1736H41.3326ZM41.3326 28.9933V29.4389H47.7424V28.9933V28.5477H41.3326V28.9933ZM47.7424 28.9933H47.2968V31.1299H47.7424H48.188V28.9933H47.7424ZM47.7424 31.1299V30.6843H39.1959V31.1299V31.5756H47.7424V31.1299ZM39.1959 31.1299H39.6416V14.037H39.1959H38.7503V31.1299H39.1959ZM47.7424 16.1736V16.6193H49.879V16.1736V15.728H47.7424V16.1736ZM49.879 16.1736H49.4334V28.9933H49.879H50.3246V16.1736H49.879ZM49.879 28.9933V28.5477H47.7424V28.9933V29.4389H49.879V28.9933ZM47.7424 28.9933H48.188V16.1736H47.7424H47.2968V28.9933H47.7424ZM54.1606 14.037V13.5914H53.715V14.037H54.1606ZM64.8437 14.037H65.2893V13.5914H64.8437V14.037ZM64.8437 16.1736V16.6193H65.2893V16.1736H64.8437ZM56.2972 16.1736V15.728H55.8516V16.1736H56.2972ZM56.2972 20.4469H55.8516V20.8925H56.2972V20.4469ZM62.7071 20.4469H63.1527V20.0012H62.7071V20.4469ZM62.7071 22.5835V23.0291H63.1527V22.5835H62.7071ZM56.2972 22.5835V22.1379H55.8516V22.5835H56.2972ZM56.2972 28.9933H55.8516V29.4389H56.2972V28.9933ZM64.8437 28.9933H65.2893V28.5477H64.8437V28.9933ZM64.8437 31.1299V31.5756H65.2893V31.1299H64.8437ZM54.1606 31.1299H53.715V31.5756H54.1606V31.1299ZM54.1606 14.037V14.4826H64.8437V14.037V13.5914H54.1606V14.037ZM64.8437 14.037H64.3981V16.1736H64.8437H65.2893V14.037H64.8437ZM64.8437 16.1736V15.728H56.2972V16.1736V16.6193H64.8437V16.1736ZM56.2972 16.1736H55.8516V20.4469H56.2972H56.7428V16.1736H56.2972ZM56.2972 20.4469V20.8925H62.7071V20.4469V20.0012H56.2972V20.4469ZM62.7071 20.4469H62.2614V22.5835H62.7071H63.1527V20.4469H62.7071ZM62.7071 22.5835V22.1379H56.2972V22.5835V23.0291H62.7071V22.5835ZM56.2972 22.5835H55.8516V28.9933H56.2972H56.7428V22.5835H56.2972ZM56.2972 28.9933V29.4389H64.8437V28.9933V28.5477H56.2972V28.9933ZM64.8437 28.9933H64.3981V31.1299H64.8437H65.2893V28.9933H64.8437ZM64.8437 31.1299V30.6843H54.1606V31.1299V31.5756H64.8437V31.1299ZM54.1606 31.1299H54.6062V14.037H54.1606H53.715V31.1299H54.1606ZM69.1252 14.037V13.5914H68.6796V14.037H69.1252ZM71.2619 14.037H71.7075V13.5914H71.2619V14.037ZM71.2619 18.3102H70.8162V18.7559H71.2619V18.3102ZM73.3985 18.3102H73.8441V17.8646H73.3985V18.3102ZM73.3985 20.4469V20.8925H73.8441V20.4469H73.3985ZM71.2619 20.4469V20.0012H70.8162V20.4469H71.2619ZM71.2619 31.1299V31.5756H71.7075V31.1299H71.2619ZM69.1252 31.1299H68.6796V31.5756H69.1252V31.1299ZM77.6717 24.7201H78.1173V24.2745H77.6717V24.7201ZM75.5351 24.7201H75.0895V25.1657H75.5351V24.7201ZM75.5351 22.5835V22.1379H75.0895V22.5835H75.5351ZM77.6717 22.5835V23.0291H78.1173V22.5835H77.6717ZM77.6717 14.037V13.5914H77.2261V14.037H77.6717ZM79.8083 14.037H80.2539V13.5914H79.8083V14.037ZM79.8083 31.1299V31.5756H80.2539V31.1299H79.8083ZM77.6717 31.1299H77.2261V31.5756H77.6717V31.1299ZM75.5351 22.5835V23.0291H75.9807V22.5835H75.5351ZM73.3985 22.5835H72.9529V23.0291H73.3985V22.5835ZM73.3985 20.4469V20.0012H72.9529V20.4469H73.3985ZM75.5351 20.4469H75.9807V20.0012H75.5351V20.4469ZM69.1252 14.037V14.4826H71.2619V14.037V13.5914H69.1252V14.037ZM71.2619 14.037H70.8162V18.3102H71.2619H71.7075V14.037H71.2619ZM71.2619 18.3102V18.7559H73.3985V18.3102V17.8646H71.2619V18.3102ZM73.3985 18.3102H72.9529V20.4469H73.3985H73.8441V18.3102H73.3985ZM73.3985 20.4469V20.0012H71.2619V20.4469V20.8925H73.3985V20.4469ZM71.2619 20.4469H70.8162V31.1299H71.2619H71.7075V20.4469H71.2619ZM71.2619 31.1299V30.6843H69.1252V31.1299V31.5756H71.2619V31.1299ZM69.1252 31.1299H69.5709V14.037H69.1252H68.6796V31.1299H69.1252ZM77.6717 24.7201V24.2745H75.5351V24.7201V25.1657H77.6717V24.7201ZM75.5351 24.7201H75.9807V22.5835H75.5351H75.0895V24.7201H75.5351ZM75.5351 22.5835V23.0291H77.6717V22.5835V22.1379H75.5351V22.5835ZM77.6717 22.5835H78.1173V14.037H77.6717H77.2261V22.5835H77.6717ZM77.6717 14.037V14.4826H79.8083V14.037V13.5914H77.6717V14.037ZM79.8083 14.037H79.3627V31.1299H79.8083H80.2539V14.037H79.8083ZM79.8083 31.1299V30.6843H77.6717V31.1299V31.5756H79.8083V31.1299ZM77.6717 31.1299H78.1173V24.7201H77.6717H77.2261V31.1299H77.6717ZM75.5351 22.5835V22.1379H73.3985V22.5835V23.0291H75.5351V22.5835ZM73.3985 22.5835H73.8441V20.4469H73.3985H72.9529V22.5835H73.3985ZM73.3985 20.4469V20.8925H75.5351V20.4469V20.0012H73.3985V20.4469ZM75.5351 20.4469H75.0895V22.5835H75.5351H75.9807V20.4469H75.5351ZM99.0546 14.037V13.5914H98.6089V14.037H99.0546ZM107.601 14.037H108.047V13.5914H107.601V14.037ZM107.601 16.1736V16.6193H108.047V16.1736H107.601ZM101.191 16.1736V15.728H100.746V16.1736H101.191ZM101.191 22.5835H100.746V23.0291H101.191V22.5835ZM107.601 22.5835H108.047V22.1379H107.601V22.5835ZM107.601 24.7201V25.1657H108.047V24.7201H107.601ZM101.191 24.7201V24.2745H100.746V24.7201H101.191ZM101.191 31.1299V31.5756H101.637V31.1299H101.191ZM99.0546 31.1299H98.6089V31.5756H99.0546V31.1299ZM107.601 16.1736V15.728H107.155V16.1736H107.601ZM109.738 16.1736H110.183V15.728H109.738V16.1736ZM109.738 22.5835V23.0291H110.183V22.5835H109.738ZM107.601 22.5835H107.155V23.0291H107.601V22.5835ZM99.0546 14.037V14.4826H107.601V14.037V13.5914H99.0546V14.037ZM107.601 14.037H107.155V16.1736H107.601H108.047V14.037H107.601ZM107.601 16.1736V15.728H101.191V16.1736V16.6193H107.601V16.1736ZM101.191 16.1736H100.746V22.5835H101.191H101.637V16.1736H101.191ZM101.191 22.5835V23.0291H107.601V22.5835V22.1379H101.191V22.5835ZM107.601 22.5835H107.155V24.7201H107.601H108.047V22.5835H107.601ZM107.601 24.7201V24.2745H101.191V24.7201V25.1657H107.601V24.7201ZM101.191 24.7201H100.746V31.1299H101.191H101.637V24.7201H101.191ZM101.191 31.1299V30.6843H99.0546V31.1299V31.5756H101.191V31.1299ZM99.0546 31.1299H99.5002V14.037H99.0546H98.6089V31.1299H99.0546ZM107.601 16.1736V16.6193H109.738V16.1736V15.728H107.601V16.1736ZM109.738 16.1736H109.292V22.5835H109.738H110.183V16.1736H109.738ZM109.738 22.5835V22.1379H107.601V22.5835V23.0291H109.738V22.5835ZM107.601 22.5835H108.047V16.1736H107.601H107.155V22.5835H107.601ZM114.019 14.037V13.5914H113.574V14.037H114.019ZM116.156 14.037H116.601V13.5914H116.156V14.037ZM116.156 28.9933H115.71V29.4389H116.156V28.9933ZM124.702 28.9933H125.148V28.5477H124.702V28.9933ZM124.702 31.1299V31.5756H125.148V31.1299H124.702ZM114.019 31.1299H113.574V31.5756H114.019V31.1299ZM114.019 14.037V14.4826H116.156V14.037V13.5914H114.019V14.037ZM116.156 14.037H115.71V28.9933H116.156H116.601V14.037H116.156ZM116.156 28.9933V29.4389H124.702V28.9933V28.5477H116.156V28.9933ZM124.702 28.9933H124.257V31.1299H124.702H125.148V28.9933H124.702ZM124.702 31.1299V30.6843H114.019V31.1299V31.5756H124.702V31.1299ZM114.019 31.1299H114.465V14.037H114.019H113.574V31.1299H114.019ZM128.984 18.3102V17.8646H128.538V18.3102H128.984ZM131.12 18.3102H131.566V17.8646H131.12V18.3102ZM131.12 22.5835H130.675V23.0291H131.12V22.5835ZM137.53 22.5835V23.0291H137.976V22.5835H137.53ZM137.53 18.3102V17.8646H137.085V18.3102H137.53ZM139.667 18.3102H140.113V17.8646H139.667V18.3102ZM139.667 31.1299V31.5756H140.113V31.1299H139.667ZM137.53 31.1299H137.085V31.5756H137.53V31.1299ZM137.53 24.7201H137.976V24.2745H137.53V24.7201ZM131.12 24.7201V24.2745H130.675V24.7201H131.12ZM131.12 31.1299V31.5756H131.566V31.1299H131.12ZM128.984 31.1299H128.538V31.5756H128.984V31.1299ZM133.257 14.037V13.5914H132.811V14.037H133.257ZM135.394 14.037H135.839V13.5914H135.394V14.037ZM135.394 16.1736V16.6193H135.839V16.1736H135.394ZM133.257 16.1736H132.811V16.6193H133.257V16.1736ZM131.12 16.1736V15.728H130.675V16.1736H131.12ZM133.257 16.1736H133.703V15.728H133.257V16.1736ZM133.257 18.3102V18.7559H133.703V18.3102H133.257ZM131.12 18.3102H130.675V18.7559H131.12V18.3102ZM135.394 16.1736V15.728H134.948V16.1736H135.394ZM137.53 16.1736H137.976V15.728H137.53V16.1736ZM137.53 18.3102V18.7559H137.976V18.3102H137.53ZM135.394 18.3102H134.948V18.7559H135.394V18.3102ZM128.984 18.3102V18.7559H131.12V18.3102V17.8646H128.984V18.3102ZM131.12 18.3102H130.675V22.5835H131.12H131.566V18.3102H131.12ZM131.12 22.5835V23.0291H137.53V22.5835V22.1379H131.12V22.5835ZM137.53 22.5835H137.976V18.3102H137.53H137.085V22.5835H137.53ZM137.53 18.3102V18.7559H139.667V18.3102V17.8646H137.53V18.3102ZM139.667 18.3102H139.221V31.1299H139.667H140.113V18.3102H139.667ZM139.667 31.1299V30.6843H137.53V31.1299V31.5756H139.667V31.1299ZM137.53 31.1299H137.976V24.7201H137.53H137.085V31.1299H137.53ZM137.53 24.7201V24.2745H131.12V24.7201V25.1657H137.53V24.7201ZM131.12 24.7201H130.675V31.1299H131.12H131.566V24.7201H131.12ZM131.12 31.1299V30.6843H128.984V31.1299V31.5756H131.12V31.1299ZM128.984 31.1299H129.429V18.3102H128.984H128.538V31.1299H128.984ZM133.257 14.037V14.4826H135.394V14.037V13.5914H133.257V14.037ZM135.394 14.037H134.948V16.1736H135.394H135.839V14.037H135.394ZM135.394 16.1736V15.728H133.257V16.1736V16.6193H135.394V16.1736ZM133.257 16.1736H133.703V14.037H133.257H132.811V16.1736H133.257ZM131.12 16.1736V16.6193H133.257V16.1736V15.728H131.12V16.1736ZM133.257 16.1736H132.811V18.3102H133.257H133.703V16.1736H133.257ZM133.257 18.3102V17.8646H131.12V18.3102V18.7559H133.257V18.3102ZM131.12 18.3102H131.566V16.1736H131.12H130.675V18.3102H131.12ZM135.394 16.1736V16.6193H137.53V16.1736V15.728H135.394V16.1736ZM137.53 16.1736H137.085V18.3102H137.53H137.976V16.1736H137.53ZM137.53 18.3102V17.8646H135.394V18.3102V18.7559H137.53V18.3102ZM135.394 18.3102H135.839V16.1736H135.394H134.948V18.3102H135.394ZM143.949 14.037V13.5914H143.503V14.037H143.949ZM146.085 14.037H146.531V13.5914H146.085V14.037ZM146.085 20.4469V20.8925H146.531V20.4469H146.085ZM143.949 20.4469H143.503V20.8925H143.949V20.4469ZM152.495 14.037V13.5914H152.049V14.037H152.495ZM154.632 14.037H155.077V13.5914H154.632V14.037ZM154.632 20.4469V20.8925H155.077V20.4469H154.632ZM152.495 20.4469H152.049V20.8925H152.495V20.4469ZM148.222 22.5835V22.1379H147.776V22.5835H148.222ZM150.358 22.5835H150.804V22.1379H150.358V22.5835ZM150.358 31.1299V31.5756H150.804V31.1299H150.358ZM148.222 31.1299H147.776V31.5756H148.222V31.1299ZM146.085 20.4469V20.0012H145.64V20.4469H146.085ZM148.222 20.4469H148.667V20.0012H148.222V20.4469ZM148.222 22.5835V23.0291H148.667V22.5835H148.222ZM146.085 22.5835H145.64V23.0291H146.085V22.5835ZM150.358 20.4469V20.0012H149.913V20.4469H150.358ZM152.495 20.4469H152.941V20.0012H152.495V20.4469ZM152.495 22.5835V23.0291H152.941V22.5835H152.495ZM150.358 22.5835H149.913V23.0291H150.358V22.5835ZM143.949 14.037V14.4826H146.085V14.037V13.5914H143.949V14.037ZM146.085 14.037H145.64V20.4469H146.085H146.531V14.037H146.085ZM146.085 20.4469V20.0012H143.949V20.4469V20.8925H146.085V20.4469ZM143.949 20.4469H144.394V14.037H143.949H143.503V20.4469H143.949ZM152.495 14.037V14.4826H154.632V14.037V13.5914H152.495V14.037ZM154.632 14.037H154.186V20.4469H154.632H155.077V14.037H154.632ZM154.632 20.4469V20.0012H152.495V20.4469V20.8925H154.632V20.4469ZM152.495 20.4469H152.941V14.037H152.495H152.049V20.4469H152.495ZM148.222 22.5835V23.0291H150.358V22.5835V22.1379H148.222V22.5835ZM150.358 22.5835H149.913V31.1299H150.358H150.804V22.5835H150.358ZM150.358 31.1299V30.6843H148.222V31.1299V31.5756H150.358V31.1299ZM148.222 31.1299H148.667V22.5835H148.222H147.776V31.1299H148.222ZM146.085 20.4469V20.8925H148.222V20.4469V20.0012H146.085V20.4469ZM148.222 20.4469H147.776V22.5835H148.222H148.667V20.4469H148.222ZM148.222 22.5835V22.1379H146.085V22.5835V23.0291H148.222V22.5835ZM146.085 22.5835H146.531V20.4469H146.085H145.64V22.5835H146.085ZM150.358 20.4469V20.8925H152.495V20.4469V20.0012H150.358V20.4469ZM152.495 20.4469H152.049V22.5835H152.495H152.941V20.4469H152.495ZM152.495 22.5835V22.1379H150.358V22.5835V23.0291H152.495V22.5835ZM150.358 22.5835H150.804V20.4469H150.358H149.913V22.5835H150.358ZM158.913 16.1736V15.728H158.468V16.1736H158.913ZM161.05 16.1736H161.495V15.728H161.05V16.1736ZM161.05 28.9933V29.4389H161.495V28.9933H161.05ZM158.913 28.9933H158.468V29.4389H158.913V28.9933ZM161.05 28.9933V28.5477H160.604V28.9933H161.05ZM167.46 28.9933H167.905V28.5477H167.46V28.9933ZM167.46 31.1299V31.5756H167.905V31.1299H167.46ZM161.05 31.1299H160.604V31.5756H161.05V31.1299ZM167.46 24.7201H167.905V24.2745H167.46V24.7201ZM165.323 24.7201H164.877V25.1657H165.323V24.7201ZM165.323 22.5835V22.1379H164.877V22.5835H165.323ZM169.596 22.5835H170.042V22.1379H169.596V22.5835ZM169.596 28.9933V29.4389H170.042V28.9933H169.596ZM167.46 28.9933H167.014V29.4389H167.46V28.9933ZM161.05 14.037V13.5914H160.604V14.037H161.05ZM167.46 14.037H167.905V13.5914H167.46V14.037ZM167.46 16.1736V16.6193H167.905V16.1736H167.46ZM161.05 16.1736H160.604V16.6193H161.05V16.1736ZM167.46 16.1736V15.728H167.014V16.1736H167.46ZM169.596 16.1736H170.042V15.728H169.596V16.1736ZM169.596 18.3102V18.7559H170.042V18.3102H169.596ZM167.46 18.3102H167.014V18.7559H167.46V18.3102ZM158.913 16.1736V16.6193H161.05V16.1736V15.728H158.913V16.1736ZM161.05 16.1736H160.604V28.9933H161.05H161.495V16.1736H161.05ZM161.05 28.9933V28.5477H158.913V28.9933V29.4389H161.05V28.9933ZM158.913 28.9933H159.359V16.1736H158.913H158.468V28.9933H158.913ZM161.05 28.9933V29.4389H167.46V28.9933V28.5477H161.05V28.9933ZM167.46 28.9933H167.014V31.1299H167.46H167.905V28.9933H167.46ZM167.46 31.1299V30.6843H161.05V31.1299V31.5756H167.46V31.1299ZM161.05 31.1299H161.495V28.9933H161.05H160.604V31.1299H161.05ZM167.46 24.7201V24.2745H165.323V24.7201V25.1657H167.46V24.7201ZM165.323 24.7201H165.769V22.5835H165.323H164.877V24.7201H165.323ZM165.323 22.5835V23.0291H169.596V22.5835V22.1379H165.323V22.5835ZM169.596 22.5835H169.151V28.9933H169.596H170.042V22.5835H169.596ZM169.596 28.9933V28.5477H167.46V28.9933V29.4389H169.596V28.9933ZM167.46 28.9933H167.905V24.7201H167.46H167.014V28.9933H167.46ZM161.05 14.037V14.4826H167.46V14.037V13.5914H161.05V14.037ZM167.46 14.037H167.014V16.1736H167.46H167.905V14.037H167.46ZM167.46 16.1736V15.728H161.05V16.1736V16.6193H167.46V16.1736ZM161.05 16.1736H161.495V14.037H161.05H160.604V16.1736H161.05ZM167.46 16.1736V16.6193H169.596V16.1736V15.728H167.46V16.1736ZM169.596 16.1736H169.151V18.3102H169.596H170.042V16.1736H169.596ZM169.596 18.3102V17.8646H167.46V18.3102V18.7559H169.596V18.3102ZM167.46 18.3102H167.905V16.1736H167.46H167.014V18.3102H167.46ZM173.878 14.037V13.5914H173.432V14.037H173.878ZM182.424 14.037H182.87V13.5914H182.424V14.037ZM182.424 16.1736V16.6193H182.87V16.1736H182.424ZM176.014 16.1736V15.728H175.569V16.1736H176.014ZM176.014 22.5835H175.569V23.0291H176.014V22.5835ZM182.424 22.5835H182.87V22.1379H182.424V22.5835ZM182.424 26.8567V27.3023H182.87V26.8567H182.424ZM180.288 26.8567H179.842V27.3023H180.288V26.8567ZM180.288 24.7201H180.733V24.2745H180.288V24.7201ZM176.014 24.7201V24.2745H175.569V24.7201H176.014ZM176.014 31.1299V31.5756H176.46V31.1299H176.014ZM173.878 31.1299H173.432V31.5756H173.878V31.1299ZM182.424 16.1736V15.728H181.979V16.1736H182.424ZM184.561 16.1736H185.007V15.728H184.561V16.1736ZM184.561 22.5835V23.0291H185.007V22.5835H184.561ZM182.424 22.5835H181.979V23.0291H182.424V22.5835ZM182.424 26.8567V26.4111H181.979V26.8567H182.424ZM184.561 26.8567H185.007V26.4111H184.561V26.8567ZM184.561 31.1299V31.5756H185.007V31.1299H184.561ZM182.424 31.1299H181.979V31.5756H182.424V31.1299ZM173.878 14.037V14.4826H182.424V14.037V13.5914H173.878V14.037ZM182.424 14.037H181.979V16.1736H182.424H182.87V14.037H182.424ZM182.424 16.1736V15.728H176.014V16.1736V16.6193H182.424V16.1736ZM176.014 16.1736H175.569V22.5835H176.014H176.46V16.1736H176.014ZM176.014 22.5835V23.0291H182.424V22.5835V22.1379H176.014V22.5835ZM182.424 22.5835H181.979V26.8567H182.424H182.87V22.5835H182.424ZM182.424 26.8567V26.4111H180.288V26.8567V27.3023H182.424V26.8567ZM180.288 26.8567H180.733V24.7201H180.288H179.842V26.8567H180.288ZM180.288 24.7201V24.2745H176.014V24.7201V25.1657H180.288V24.7201ZM176.014 24.7201H175.569V31.1299H176.014H176.46V24.7201H176.014ZM176.014 31.1299V30.6843H173.878V31.1299V31.5756H176.014V31.1299ZM173.878 31.1299H174.323V14.037H173.878H173.432V31.1299H173.878ZM182.424 16.1736V16.6193H184.561V16.1736V15.728H182.424V16.1736ZM184.561 16.1736H184.115V22.5835H184.561H185.007V16.1736H184.561ZM184.561 22.5835V22.1379H182.424V22.5835V23.0291H184.561V22.5835ZM182.424 22.5835H182.87V16.1736H182.424H181.979V22.5835H182.424ZM182.424 26.8567V27.3023H184.561V26.8567V26.4111H182.424V26.8567ZM184.561 26.8567H184.115V31.1299H184.561H185.007V26.8567H184.561ZM184.561 31.1299V30.6843H182.424V31.1299V31.5756H184.561V31.1299ZM182.424 31.1299H182.87V26.8567H182.424H181.979V31.1299H182.424ZM188.842 16.1736V15.728H188.397V16.1736H188.842ZM190.979 16.1736H191.425V15.728H190.979V16.1736ZM190.979 28.9933V29.4389H191.425V28.9933H190.979ZM188.842 28.9933H188.397V29.4389H188.842V28.9933ZM190.979 28.9933V28.5477H190.533V28.9933H190.979ZM197.389 28.9933H197.835V28.5477H197.389V28.9933ZM197.389 31.1299V31.5756H197.835V31.1299H197.389ZM190.979 31.1299H190.533V31.5756H190.979V31.1299ZM197.389 16.1736V15.728H196.943V16.1736H197.389ZM199.526 16.1736H199.971V15.728H199.526V16.1736ZM199.526 28.9933V29.4389H199.971V28.9933H199.526ZM197.389 28.9933H196.943V29.4389H197.389V28.9933ZM190.979 14.037V13.5914H190.533V14.037H190.979ZM197.389 14.037H197.835V13.5914H197.389V14.037ZM197.389 16.1736V16.6193H197.835V16.1736H197.389ZM190.979 16.1736H190.533V16.6193H190.979V16.1736ZM188.842 16.1736V16.6193H190.979V16.1736V15.728H188.842V16.1736ZM190.979 16.1736H190.533V28.9933H190.979H191.425V16.1736H190.979ZM190.979 28.9933V28.5477H188.842V28.9933V29.4389H190.979V28.9933ZM188.842 28.9933H189.288V16.1736H188.842H188.397V28.9933H188.842ZM190.979 28.9933V29.4389H197.389V28.9933V28.5477H190.979V28.9933ZM197.389 28.9933H196.943V31.1299H197.389H197.835V28.9933H197.389ZM197.389 31.1299V30.6843H190.979V31.1299V31.5756H197.389V31.1299ZM190.979 31.1299H191.425V28.9933H190.979H190.533V31.1299H190.979ZM197.389 16.1736V16.6193H199.526V16.1736V15.728H197.389V16.1736ZM199.526 16.1736H199.08V28.9933H199.526H199.971V16.1736H199.526ZM199.526 28.9933V28.5477H197.389V28.9933V29.4389H199.526V28.9933ZM197.389 28.9933H197.835V16.1736H197.389H196.943V28.9933H197.389ZM190.979 14.037V14.4826H197.389V14.037V13.5914H190.979V14.037ZM197.389 14.037H196.943V16.1736H197.389H197.835V14.037H197.389ZM197.389 16.1736V15.728H190.979V16.1736V16.6193H197.389V16.1736ZM190.979 16.1736H191.425V14.037H190.979H190.533V16.1736H190.979ZM203.807 14.037V13.5914H203.362V14.037H203.807ZM205.944 14.037H206.389V13.5914H205.944V14.037ZM205.944 28.9933V29.4389H206.389V28.9933H205.944ZM203.807 28.9933H203.362V29.4389H203.807V28.9933ZM205.944 28.9933V28.5477H205.498V28.9933H205.944ZM212.354 28.9933H212.799V28.5477H212.354V28.9933ZM212.354 31.1299V31.5756H212.799V31.1299H212.354ZM205.944 31.1299H205.498V31.5756H205.944V31.1299ZM212.354 14.037V13.5914H211.908V14.037H212.354ZM214.49 14.037H214.936V13.5914H214.49V14.037ZM214.49 28.9933V29.4389H214.936V28.9933H214.49ZM212.354 28.9933H211.908V29.4389H212.354V28.9933ZM203.807 14.037V14.4826H205.944V14.037V13.5914H203.807V14.037ZM205.944 14.037H205.498V28.9933H205.944H206.389V14.037H205.944ZM205.944 28.9933V28.5477H203.807V28.9933V29.4389H205.944V28.9933ZM203.807 28.9933H204.253V14.037H203.807H203.362V28.9933H203.807ZM205.944 28.9933V29.4389H212.354V28.9933V28.5477H205.944V28.9933ZM212.354 28.9933H211.908V31.1299H212.354H212.799V28.9933H212.354ZM212.354 31.1299V30.6843H205.944V31.1299V31.5756H212.354V31.1299ZM205.944 31.1299H206.389V28.9933H205.944H205.498V31.1299H205.944ZM212.354 14.037V14.4826H214.49V14.037V13.5914H212.354V14.037ZM214.49 14.037H214.045V28.9933H214.49H214.936V14.037H214.49ZM214.49 28.9933V28.5477H212.354V28.9933V29.4389H214.49V28.9933ZM212.354 28.9933H212.799V14.037H212.354H211.908V28.9933H212.354ZM218.772 14.037V13.5914H218.326V14.037H218.772ZM220.908 14.037H221.354V13.5914H220.908V14.037ZM220.908 18.3102H220.463V18.7559H220.908V18.3102ZM223.045 18.3102H223.491V17.8646H223.045V18.3102ZM223.045 20.4469V20.8925H223.491V20.4469H223.045ZM220.908 20.4469V20.0012H220.463V20.4469H220.908ZM220.908 31.1299V31.5756H221.354V31.1299H220.908ZM218.772 31.1299H218.326V31.5756H218.772V31.1299ZM227.318 24.7201H227.764V24.2745H227.318V24.7201ZM225.182 24.7201H224.736V25.1657H225.182V24.7201ZM225.182 22.5835V22.1379H224.736V22.5835H225.182ZM227.318 22.5835V23.0291H227.764V22.5835H227.318ZM227.318 14.037V13.5914H226.873V14.037H227.318ZM229.455 14.037H229.901V13.5914H229.455V14.037ZM229.455 31.1299V31.5756H229.901V31.1299H229.455ZM227.318 31.1299H226.873V31.5756H227.318V31.1299ZM225.182 22.5835V23.0291H225.627V22.5835H225.182ZM223.045 22.5835H222.599V23.0291H223.045V22.5835ZM223.045 20.4469V20.0012H222.599V20.4469H223.045ZM225.182 20.4469H225.627V20.0012H225.182V20.4469ZM218.772 14.037V14.4826H220.908V14.037V13.5914H218.772V14.037ZM220.908 14.037H220.463V18.3102H220.908H221.354V14.037H220.908ZM220.908 18.3102V18.7559H223.045V18.3102V17.8646H220.908V18.3102ZM223.045 18.3102H222.599V20.4469H223.045H223.491V18.3102H223.045ZM223.045 20.4469V20.0012H220.908V20.4469V20.8925H223.045V20.4469ZM220.908 20.4469H220.463V31.1299H220.908H221.354V20.4469H220.908ZM220.908 31.1299V30.6843H218.772V31.1299V31.5756H220.908V31.1299ZM218.772 31.1299H219.217V14.037H218.772H218.326V31.1299H218.772ZM227.318 24.7201V24.2745H225.182V24.7201V25.1657H227.318V24.7201ZM225.182 24.7201H225.627V22.5835H225.182H224.736V24.7201H225.182ZM225.182 22.5835V23.0291H227.318V22.5835V22.1379H225.182V22.5835ZM227.318 22.5835H227.764V14.037H227.318H226.873V22.5835H227.318ZM227.318 14.037V14.4826H229.455V14.037V13.5914H227.318V14.037ZM229.455 14.037H229.009V31.1299H229.455H229.901V14.037H229.455ZM229.455 31.1299V30.6843H227.318V31.1299V31.5756H229.455V31.1299ZM227.318 31.1299H227.764V24.7201H227.318H226.873V31.1299H227.318ZM225.182 22.5835V22.1379H223.045V22.5835V23.0291H225.182V22.5835ZM223.045 22.5835H223.491V20.4469H223.045H222.599V22.5835H223.045ZM223.045 20.4469V20.8925H225.182V20.4469V20.0012H223.045V20.4469ZM225.182 20.4469H224.736V22.5835H225.182H225.627V20.4469H225.182ZM233.736 14.037V13.5914H233.291V14.037H233.736ZM242.283 14.037H242.729V13.5914H242.283V14.037ZM242.283 16.1736V16.6193H242.729V16.1736H242.283ZM235.873 16.1736V15.728H235.427V16.1736H235.873ZM235.873 28.9933H235.427V29.4389H235.873V28.9933ZM242.283 28.9933H242.729V28.5477H242.283V28.9933ZM242.283 31.1299V31.5756H242.729V31.1299H242.283ZM233.736 31.1299H233.291V31.5756H233.736V31.1299ZM242.283 16.1736V15.728H241.837V16.1736H242.283ZM244.42 16.1736H244.865V15.728H244.42V16.1736ZM244.42 28.9933V29.4389H244.865V28.9933H244.42ZM242.283 28.9933H241.837V29.4389H242.283V28.9933ZM233.736 14.037V14.4826H242.283V14.037V13.5914H233.736V14.037ZM242.283 14.037H241.837V16.1736H242.283H242.729V14.037H242.283ZM242.283 16.1736V15.728H235.873V16.1736V16.6193H242.283V16.1736ZM235.873 16.1736H235.427V28.9933H235.873H236.319V16.1736H235.873ZM235.873 28.9933V29.4389H242.283V28.9933V28.5477H235.873V28.9933ZM242.283 28.9933H241.837V31.1299H242.283H242.729V28.9933H242.283ZM242.283 31.1299V30.6843H233.736V31.1299V31.5756H242.283V31.1299ZM233.736 31.1299H234.182V14.037H233.736H233.291V31.1299H233.736ZM242.283 16.1736V16.6193H244.42V16.1736V15.728H242.283V16.1736ZM244.42 16.1736H243.974V28.9933H244.42H244.865V16.1736H244.42ZM244.42 28.9933V28.5477H242.283V28.9933V29.4389H244.42V28.9933ZM242.283 28.9933H242.729V16.1736H242.283H241.837V28.9933H242.283Z" fill="black" mask="url(#path-1-outside-1_36_1579)"/>
</svg>
